<svg id="svg" version="1.1" xmlns="http://www.w3.org/2000/svg" xmlns:xlink="http://www.w3.org/1999/xlink" width="400" height="467" viewBox="0, 0, 400,467"><g id="svgg"><path id="path0" d="M68.600 0.295 C 67.940 0.391,67.256 0.724,67.080 1.035 C 66.904 1.346,66.420 1.600,66.004 1.600 C 65.588 1.600,65.136 1.780,65.000 2.000 C 64.864 2.220,64.234 2.400,63.600 2.400 C 62.966 2.400,62.336 2.580,62.200 2.800 C 62.064 3.020,61.443 3.200,60.819 3.200 C 60.181 3.200,59.585 3.462,59.455 3.800 C 59.322 4.147,58.724 4.400,58.036 4.400 C 57.382 4.400,56.736 4.580,56.600 4.800 C 56.464 5.020,55.941 5.200,55.438 5.200 C 54.448 5.200,52.160 6.218,51.784 6.825 C 51.657 7.031,51.034 7.200,50.400 7.200 C 49.766 7.200,49.136 7.380,49.000 7.600 C 48.864 7.820,48.243 8.000,47.619 8.000 C 46.981 8.000,46.385 8.262,46.255 8.600 C 46.126 8.938,45.530 9.200,44.892 9.200 C 41.605 9.200,40.784 11.741,42.372 17.000 C 42.638 17.880,42.962 19.047,43.092 19.593 C 43.222 20.139,43.570 20.827,43.864 21.122 C 44.159 21.416,44.400 22.066,44.400 22.567 C 44.400 24.546,46.105 25.138,49.089 24.194 C 49.812 23.965,50.071 24.125,50.481 25.056 C 50.757 25.685,51.135 26.309,51.321 26.441 C 51.627 26.661,52.071 28.084,52.680 30.800 C 52.803 31.350,53.121 32.070,53.386 32.400 C 53.925 33.070,54.470 34.520,55.192 37.200 C 55.459 38.190,55.841 39.270,56.041 39.600 C 56.241 39.930,56.510 40.470,56.639 40.800 C 56.767 41.130,57.016 41.760,57.191 42.200 C 57.366 42.640,57.738 43.765,58.018 44.700 C 58.299 45.635,58.667 46.400,58.837 46.400 C 59.007 46.400,59.270 46.805,59.420 47.300 C 60.046 49.352,62.759 50.527,63.345 49.000 C 63.471 48.670,63.883 48.400,64.259 48.400 C 65.034 48.400,67.217 47.757,69.000 47.003 C 69.660 46.724,71.010 46.268,72.000 45.990 C 75.271 45.071,77.375 44.353,77.790 44.012 C 78.016 43.828,78.650 43.614,79.200 43.538 C 80.654 43.337,80.454 37.997,78.936 36.478 C 78.641 36.184,78.400 35.536,78.400 35.038 C 78.400 34.540,78.277 34.010,78.126 33.859 C 77.771 33.504,76.814 30.757,76.806 30.071 C 76.803 29.781,76.530 29.273,76.200 28.943 C 75.870 28.613,75.600 28.019,75.600 27.623 C 75.600 27.228,75.051 25.306,74.381 23.352 C 71.836 15.938,71.788 15.540,73.400 15.174 C 77.027 14.349,77.902 12.908,76.466 10.125 C 76.033 9.286,75.505 7.970,75.293 7.200 C 74.236 3.358,73.814 2.147,73.329 1.569 C 73.038 1.221,72.800 0.726,72.800 0.469 C 72.800 0.003,71.089 -0.068,68.600 0.295 M283.145 18.300 C 282.561 19.005,281.862 20.406,281.449 21.700 C 281.323 22.094,280.826 22.403,280.313 22.406 C 276.063 22.434,274.628 24.353,277.135 26.655 C 279.415 28.749,279.476 28.923,278.572 30.736 C 277.091 33.705,280.337 34.979,283.498 32.669 C 283.818 32.436,284.774 32.621,286.169 33.188 C 289.340 34.474,291.475 32.859,289.596 30.595 C 289.245 30.173,289.284 29.776,289.758 28.921 C 290.100 28.304,290.486 27.523,290.615 27.184 C 290.744 26.846,291.243 26.396,291.725 26.184 C 292.743 25.737,292.924 24.039,292.000 23.606 C 291.670 23.451,290.997 23.116,290.505 22.862 C 290.013 22.608,289.154 22.400,288.596 22.400 C 287.892 22.400,287.468 22.105,287.215 21.439 C 287.014 20.910,286.658 20.360,286.425 20.215 C 286.191 20.071,286.000 19.610,286.000 19.190 C 286.000 17.786,284.069 17.183,283.145 18.300 M190.200 19.989 C 189.760 20.184,188.924 20.356,188.343 20.372 C 187.761 20.387,187.182 20.670,187.055 21.000 C 186.929 21.330,186.367 21.600,185.807 21.600 C 185.247 21.600,184.477 21.765,184.095 21.966 C 183.713 22.168,182.761 22.609,181.979 22.948 C 181.197 23.286,180.224 23.931,179.817 24.381 C 179.409 24.832,178.748 25.200,178.347 25.200 C 177.946 25.200,177.343 25.620,177.007 26.134 C 176.670 26.647,175.915 27.322,175.329 27.634 C 173.649 28.526,172.000 30.116,172.000 30.843 C 172.000 31.209,171.577 31.785,171.060 32.124 C 170.543 32.463,169.814 33.384,169.441 34.170 C 169.068 34.957,168.624 35.600,168.455 35.600 C 168.180 35.600,167.734 36.341,165.838 39.943 C 165.532 40.524,165.066 41.810,164.803 42.800 C 164.539 43.790,164.070 45.191,163.762 45.914 C 163.395 46.771,163.200 48.731,163.200 51.564 C 163.200 56.508,162.921 58.400,162.193 58.400 C 161.914 58.400,161.582 58.670,161.455 59.000 C 161.329 59.330,160.977 59.600,160.674 59.600 C 159.976 59.600,157.691 60.729,157.384 61.225 C 157.257 61.431,156.803 61.600,156.376 61.600 C 155.949 61.600,155.600 61.759,155.600 61.954 C 155.600 62.149,154.970 62.608,154.200 62.973 C 153.430 63.339,152.800 63.773,152.800 63.939 C 152.800 64.105,151.990 64.752,151.000 65.378 C 150.010 66.004,149.200 66.670,149.200 66.858 C 149.200 67.046,148.975 67.205,148.700 67.211 C 148.425 67.217,147.750 67.852,147.200 68.621 C 146.650 69.391,145.795 70.511,145.300 71.110 C 144.806 71.710,144.401 72.592,144.400 73.071 C 144.400 73.551,144.130 74.213,143.800 74.543 C 142.500 75.843,143.513 80.451,145.679 83.090 C 147.212 84.958,154.517 86.682,159.088 86.256 C 167.562 85.467,172.467 84.705,173.864 83.963 C 174.591 83.576,174.944 83.669,176.101 84.552 C 176.857 85.128,177.684 85.600,177.938 85.600 C 178.192 85.600,178.400 85.780,178.400 86.000 C 178.400 86.220,178.655 86.400,178.967 86.400 C 179.278 86.400,179.593 86.546,179.667 86.724 C 179.842 87.150,184.003 89.200,184.693 89.200 C 184.987 89.200,185.627 89.444,186.114 89.741 C 186.601 90.039,188.080 90.508,189.400 90.783 C 190.720 91.058,192.232 91.490,192.761 91.742 C 194.131 92.395,204.600 92.360,205.260 91.700 C 205.535 91.425,206.399 91.192,207.180 91.182 C 208.846 91.162,212.049 90.368,212.844 89.779 C 213.150 89.552,213.850 89.168,214.400 88.924 C 218.848 86.955,222.168 85.018,222.315 84.307 C 222.378 84.001,223.044 83.528,223.794 83.257 C 224.544 82.985,225.266 82.421,225.399 82.002 C 225.532 81.584,225.992 81.130,226.420 80.994 C 226.849 80.857,227.200 80.480,227.200 80.155 C 227.200 79.830,227.667 79.096,228.239 78.525 C 229.461 77.303,230.800 75.028,230.800 74.175 C 230.800 73.845,231.070 73.471,231.400 73.345 C 231.730 73.218,232.000 72.861,232.000 72.552 C 232.000 71.981,232.632 70.693,233.448 69.600 C 233.694 69.270,234.019 68.460,234.169 67.800 C 234.320 67.140,234.626 65.790,234.851 64.800 C 235.075 63.810,235.404 61.052,235.582 58.671 C 235.945 53.823,236.364 53.063,239.911 50.826 C 243.415 48.616,248.618 42.914,250.722 38.977 C 251.009 38.439,251.414 38.000,251.622 38.000 C 251.830 38.000,252.000 37.651,252.000 37.224 C 252.000 36.797,252.180 36.336,252.400 36.200 C 252.620 36.064,252.801 35.558,252.802 35.076 C 252.804 34.594,253.074 33.684,253.402 33.054 C 254.168 31.586,254.167 29.710,253.400 28.943 C 253.070 28.613,252.800 27.926,252.800 27.417 C 252.800 26.265,249.736 23.200,248.584 23.200 C 248.131 23.200,247.566 23.006,247.328 22.768 C 246.573 22.013,236.310 22.945,235.570 23.836 C 235.313 24.146,234.415 24.400,233.575 24.400 C 232.735 24.400,231.951 24.555,231.834 24.745 C 231.717 24.935,230.761 25.322,229.710 25.606 C 228.660 25.890,227.516 26.364,227.169 26.661 C 226.821 26.957,226.272 27.200,225.949 27.200 C 225.625 27.200,225.153 27.407,224.901 27.659 C 224.555 28.005,224.214 27.953,223.521 27.448 C 223.014 27.079,221.880 26.248,221.000 25.602 C 220.120 24.955,219.151 24.421,218.846 24.413 C 218.541 24.406,217.875 23.950,217.365 23.400 C 216.855 22.849,215.991 22.400,215.443 22.400 C 214.895 22.400,214.336 22.220,214.200 22.000 C 214.064 21.780,213.625 21.600,213.225 21.600 C 212.825 21.600,212.288 21.348,212.032 21.039 C 211.175 20.006,192.216 19.094,190.200 19.989 M243.200 30.722 C 243.200 31.297,241.436 33.454,240.000 34.635 C 239.230 35.269,238.510 35.906,238.400 36.051 C 236.605 38.416,232.973 39.920,232.243 38.600 C 231.999 38.160,231.575 37.656,231.300 37.480 C 231.025 37.304,230.800 36.837,230.800 36.442 C 230.800 36.047,230.440 35.398,230.000 35.000 C 229.560 34.602,229.199 34.079,229.198 33.838 C 229.197 33.597,228.576 32.725,227.818 31.900 L 226.441 30.400 234.820 30.400 C 239.429 30.400,243.200 30.545,243.200 30.722 M90.600 44.800 C 90.464 45.020,89.834 45.200,89.200 45.200 C 88.566 45.200,87.936 45.380,87.800 45.600 C 87.664 45.820,87.293 46.000,86.974 46.000 C 86.656 46.000,85.463 46.450,84.323 47.000 C 83.183 47.550,81.853 48.000,81.368 48.000 C 80.883 48.000,80.382 48.270,80.255 48.600 C 80.129 48.930,79.567 49.200,79.007 49.200 C 78.447 49.200,77.632 49.380,77.195 49.600 C 76.758 49.820,76.042 50.180,75.605 50.400 C 75.168 50.620,74.470 50.800,74.054 50.800 C 73.638 50.800,73.074 51.070,72.800 51.400 C 72.526 51.730,71.872 52.000,71.346 52.000 C 70.820 52.000,70.077 52.159,69.695 52.353 C 69.313 52.548,68.550 52.883,68.000 53.098 C 67.450 53.313,66.319 53.784,65.486 54.145 C 64.654 54.505,63.630 54.800,63.210 54.800 C 62.790 54.800,62.336 54.980,62.200 55.200 C 62.064 55.420,61.623 55.600,61.219 55.600 C 60.816 55.600,60.382 55.870,60.255 56.200 C 60.122 56.547,59.524 56.800,58.836 56.800 C 58.182 56.800,57.536 56.980,57.400 57.200 C 57.264 57.420,56.741 57.600,56.238 57.600 C 53.781 57.600,51.547 60.233,53.400 60.945 C 53.730 61.071,54.000 61.573,54.000 62.059 C 54.000 63.014,54.590 65.024,55.480 67.100 C 56.000 68.311,56.170 68.400,57.978 68.400 C 60.122 68.400,61.600 70.175,61.600 72.750 C 61.600 74.520,62.906 75.485,64.176 74.653 C 65.503 73.783,70.204 73.747,71.057 74.600 C 71.387 74.930,72.084 75.200,72.605 75.200 C 73.126 75.200,73.664 75.380,73.800 75.600 C 73.936 75.820,74.397 76.000,74.824 76.000 C 75.251 76.000,75.600 76.137,75.600 76.305 C 75.600 76.473,75.923 76.788,76.319 77.005 C 78.368 78.131,79.595 79.048,79.597 79.454 C 79.599 79.704,80.050 80.203,80.600 80.563 C 81.150 80.924,81.600 81.450,81.600 81.734 C 81.600 82.018,81.960 82.995,82.400 83.906 C 82.840 84.816,83.200 85.812,83.200 86.119 C 83.200 86.426,83.479 87.236,83.820 87.920 C 84.235 88.751,84.440 90.295,84.440 92.579 C 84.440 96.004,84.271 96.650,82.291 100.800 C 81.388 102.694,78.278 106.000,77.401 106.000 C 77.117 106.000,76.782 106.270,76.655 106.600 C 76.529 106.930,76.059 107.200,75.613 107.200 C 74.317 107.200,74.765 111.382,76.262 113.254 C 77.398 114.674,77.315 117.565,76.124 118.093 C 73.874 119.089,73.597 120.864,74.768 126.800 C 75.007 128.010,75.317 129.810,75.458 130.800 C 75.599 131.790,75.958 132.955,76.257 133.389 C 76.556 133.823,76.800 135.038,76.800 136.089 L 76.800 138.000 78.524 138.000 C 79.471 138.000,80.596 137.736,81.024 137.413 C 81.451 137.090,82.284 136.820,82.876 136.813 C 83.468 136.806,84.064 136.620,84.200 136.400 C 84.336 136.180,84.966 136.000,85.600 136.000 C 86.234 136.000,86.864 135.820,87.000 135.600 C 87.827 134.262,90.800 135.841,90.800 137.619 C 90.800 138.506,92.395 139.902,93.595 140.065 C 94.614 140.203,94.623 140.226,95.470 144.600 C 95.977 147.219,103.504 148.717,107.236 146.941 C 107.766 146.689,109.100 146.137,110.200 145.715 C 113.511 144.444,115.682 138.850,113.703 136.687 C 112.285 135.136,112.256 134.257,113.600 133.463 C 115.126 132.562,115.040 130.857,113.311 127.769 C 112.820 126.893,113.773 125.600,114.910 125.600 C 115.476 125.600,118.691 124.457,120.800 123.506 C 121.570 123.159,122.695 122.765,123.300 122.630 C 123.905 122.495,124.400 122.208,124.400 121.992 C 124.400 121.777,124.916 121.600,125.546 121.600 C 126.678 121.600,127.111 122.297,128.221 125.900 C 128.310 126.188,129.036 126.400,129.938 126.400 C 131.694 126.400,132.281 126.905,132.646 128.729 C 132.784 129.418,133.145 130.188,133.448 130.440 C 133.752 130.692,134.003 131.281,134.006 131.749 C 134.024 134.184,138.676 135.990,141.346 134.598 C 141.976 134.269,142.724 134.000,143.008 134.000 C 143.480 134.000,146.149 132.806,147.600 131.944 C 147.930 131.749,148.696 131.393,149.302 131.154 C 149.920 130.911,150.509 130.305,150.642 129.776 C 150.772 129.257,151.131 128.623,151.439 128.367 C 152.180 127.753,152.156 125.699,151.400 124.943 C 151.070 124.613,150.800 124.018,150.800 123.620 C 150.800 123.223,150.535 122.263,150.211 121.488 C 149.682 120.222,149.687 120.052,150.258 119.833 C 150.902 119.586,150.869 116.689,150.192 113.979 C 149.967 113.080,150.178 112.809,151.969 111.696 C 153.889 110.502,155.127 107.200,153.654 107.200 C 153.464 107.200,152.986 106.345,152.591 105.300 C 152.196 104.255,151.746 103.310,151.589 103.200 C 151.233 102.949,149.200 98.514,149.200 97.988 C 149.200 97.775,149.054 97.600,148.875 97.600 C 148.696 97.600,148.157 96.700,147.677 95.600 C 146.858 93.725,144.400 92.504,144.400 93.973 C 144.400 94.178,143.995 94.455,143.500 94.587 C 140.108 95.495,139.267 95.753,138.200 96.213 C 137.540 96.497,136.190 96.943,135.200 97.204 C 134.210 97.465,133.087 97.840,132.705 98.039 C 132.323 98.238,131.693 98.406,131.305 98.413 C 130.917 98.420,130.251 98.690,129.824 99.013 C 129.396 99.336,128.661 99.600,128.190 99.600 C 127.719 99.600,127.210 99.723,127.059 99.874 C 126.669 100.265,123.926 101.187,123.133 101.194 C 122.767 101.197,122.403 101.390,122.326 101.621 C 122.201 101.998,121.267 102.315,118.007 103.092 C 117.461 103.222,116.773 103.570,116.478 103.864 C 116.184 104.159,115.516 104.400,114.995 104.400 C 114.474 104.400,113.936 104.580,113.800 104.800 C 113.363 105.507,112.462 105.227,112.187 104.300 C 112.041 103.805,111.489 102.466,110.960 101.325 C 110.432 100.183,109.997 99.013,109.994 98.725 C 109.987 98.101,109.265 96.131,108.068 93.467 C 107.591 92.404,107.200 91.266,107.200 90.938 C 107.200 90.611,106.930 90.073,106.600 89.743 C 106.270 89.413,106.000 88.811,106.000 88.405 C 106.000 87.999,105.640 86.826,105.200 85.800 C 104.760 84.774,104.400 83.666,104.400 83.338 C 104.400 83.011,104.130 82.473,103.800 82.143 C 103.470 81.813,103.200 81.211,103.200 80.805 C 103.200 80.399,102.840 79.226,102.400 78.200 C 101.960 77.174,101.600 76.004,101.600 75.600 C 101.600 75.197,101.410 74.803,101.179 74.726 C 100.786 74.595,100.219 72.873,99.722 70.300 C 99.605 69.695,99.374 69.200,99.209 69.200 C 98.921 69.200,98.297 67.632,97.220 64.200 C 96.944 63.320,96.286 61.666,95.759 60.525 C 95.232 59.383,94.800 58.114,94.800 57.705 C 94.800 57.295,94.575 56.734,94.300 56.458 C 93.755 55.912,94.899 54.736,96.700 53.992 C 98.175 53.382,97.898 51.542,95.570 46.501 C 94.598 44.397,91.503 43.338,90.600 44.800 M232.242 46.424 C 232.515 47.181,232.753 48.546,232.770 49.457 C 232.789 50.540,233.008 51.194,233.400 51.345 C 234.324 51.699,234.113 52.377,232.940 52.823 C 232.357 53.044,231.322 53.682,230.640 54.240 C 227.949 56.443,226.266 57.600,225.754 57.600 C 225.460 57.600,224.924 58.050,224.563 58.600 C 224.203 59.150,223.722 59.600,223.495 59.600 C 223.268 59.600,222.134 60.230,220.974 61.000 C 219.814 61.770,218.584 62.400,218.241 62.400 C 217.899 62.400,217.324 62.850,216.963 63.400 C 216.603 63.950,216.056 64.400,215.749 64.400 C 215.441 64.400,214.877 64.565,214.495 64.766 C 214.113 64.968,213.170 65.426,212.400 65.784 C 211.630 66.142,210.460 66.774,209.800 67.189 C 209.140 67.603,208.304 67.955,207.943 67.971 C 207.581 67.987,207.182 68.270,207.055 68.600 C 206.929 68.930,206.547 69.200,206.207 69.200 C 205.867 69.200,205.277 69.359,204.895 69.553 C 204.513 69.748,203.660 70.152,203.000 70.453 C 202.340 70.753,201.656 71.224,201.480 71.499 C 201.304 71.775,200.897 72.000,200.575 72.000 C 200.253 72.000,199.632 72.180,199.195 72.400 C 198.758 72.620,198.042 72.980,197.605 73.200 C 197.168 73.420,196.470 73.600,196.054 73.600 C 195.638 73.600,195.074 73.870,194.800 74.200 C 194.526 74.530,193.975 74.800,193.575 74.800 C 193.175 74.800,192.736 74.980,192.600 75.200 C 192.464 75.420,191.843 75.600,191.219 75.600 C 190.581 75.600,189.985 75.862,189.855 76.200 C 189.729 76.530,189.270 76.800,188.836 76.800 C 188.402 76.800,187.936 76.980,187.800 77.200 C 187.664 77.420,187.034 77.600,186.400 77.600 C 185.766 77.600,185.136 77.780,185.000 78.000 C 184.864 78.220,184.243 78.400,183.619 78.400 C 182.996 78.400,182.390 78.649,182.274 78.953 C 182.050 79.536,180.005 80.033,177.504 80.113 C 176.002 80.162,175.175 79.481,171.366 75.067 C 170.618 74.200,170.537 74.281,172.800 73.635 C 173.790 73.353,174.913 72.960,175.295 72.761 C 175.677 72.562,176.240 72.400,176.546 72.400 C 176.852 72.400,177.326 72.130,177.600 71.800 C 177.874 71.470,178.438 71.200,178.854 71.200 C 179.270 71.200,179.923 71.041,180.305 70.847 C 180.687 70.652,181.450 70.317,182.000 70.102 C 182.550 69.887,183.681 69.416,184.514 69.055 C 185.346 68.695,186.276 68.400,186.580 68.400 C 186.884 68.400,187.193 68.265,187.267 68.100 C 187.485 67.610,190.005 66.400,190.809 66.400 C 191.218 66.400,191.664 66.220,191.800 66.000 C 191.936 65.780,192.382 65.600,192.790 65.600 C 193.199 65.600,193.593 65.465,193.667 65.300 C 193.783 65.038,197.108 63.309,198.800 62.632 C 199.130 62.499,199.940 62.046,200.600 61.625 C 201.260 61.203,202.115 60.845,202.500 60.829 C 202.885 60.813,203.200 60.620,203.200 60.400 C 203.200 60.180,203.549 60.000,203.976 60.000 C 204.403 60.000,204.861 59.825,204.993 59.611 C 205.126 59.397,205.901 58.925,206.717 58.563 C 209.353 57.393,210.576 56.779,211.800 56.011 C 212.460 55.597,213.256 55.245,213.569 55.229 C 213.881 55.213,214.421 54.948,214.769 54.640 C 215.518 53.975,218.997 52.009,221.814 50.656 C 222.921 50.125,224.068 49.400,224.363 49.045 C 224.657 48.690,225.146 48.400,225.449 48.400 C 225.752 48.400,226.000 48.220,226.000 48.000 C 226.000 47.780,226.317 47.600,226.704 47.600 C 227.091 47.600,227.893 47.150,228.487 46.600 C 229.080 46.050,229.843 45.600,230.183 45.600 C 230.522 45.600,230.800 45.405,230.800 45.167 C 230.800 44.263,231.766 45.105,232.242 46.424 M268.000 48.605 C 268.000 49.154,267.704 49.860,266.745 51.600 C 266.563 51.930,266.053 52.950,265.613 53.866 C 264.354 56.482,263.860 56.800,261.051 56.800 C 259.681 56.800,258.389 56.965,258.180 57.166 C 257.971 57.368,257.352 57.593,256.804 57.666 C 254.952 57.915,255.408 59.062,258.623 62.235 L 261.703 65.276 261.496 67.857 C 261.366 69.484,261.037 70.717,260.608 71.191 C 259.253 72.688,261.016 74.576,262.948 73.696 C 263.416 73.482,264.340 73.082,265.000 72.807 C 265.660 72.532,266.470 72.150,266.800 71.959 C 269.438 70.426,269.328 70.446,270.800 71.220 C 272.524 72.127,273.505 72.664,274.800 73.411 C 277.147 74.765,277.600 74.339,277.600 70.774 C 277.600 68.999,277.415 67.201,277.188 66.777 C 276.686 65.839,277.420 64.235,278.962 62.903 C 279.533 62.409,280.000 61.842,280.000 61.642 C 280.000 61.442,280.540 61.090,281.200 60.860 C 282.651 60.354,283.056 57.600,281.680 57.600 C 281.284 57.600,280.789 57.429,280.580 57.220 C 280.370 57.010,278.851 56.785,277.204 56.720 C 274.575 56.615,274.190 56.502,274.058 55.800 C 273.975 55.360,273.771 54.910,273.605 54.800 C 273.439 54.690,272.908 53.790,272.426 52.800 C 270.570 48.988,269.813 48.000,268.751 48.000 C 268.338 48.000,268.000 48.272,268.000 48.605 M163.560 64.412 C 164.022 65.299,164.400 66.472,164.400 67.018 C 164.400 67.564,164.556 68.323,164.747 68.705 C 164.938 69.087,165.466 70.117,165.921 70.993 L 166.749 72.585 163.874 73.536 C 156.278 76.050,151.754 76.148,153.695 73.757 C 154.539 72.718,155.437 71.455,156.600 69.676 C 157.586 68.166,159.987 65.294,161.119 64.270 C 161.405 64.011,161.855 63.582,162.119 63.315 C 162.384 63.049,162.627 62.824,162.660 62.815 C 162.692 62.807,163.097 63.526,163.560 64.412 M60.255 79.000 C 60.129 79.330,59.633 79.600,59.154 79.600 C 56.991 79.600,53.613 82.557,51.942 85.912 C 50.574 88.660,50.200 97.004,51.400 98.000 C 51.730 98.274,52.000 98.810,52.000 99.191 C 52.000 99.572,52.405 100.321,52.900 100.856 C 53.395 101.391,54.093 102.278,54.452 102.827 C 56.896 106.569,69.405 107.699,72.924 104.497 C 73.406 104.059,74.205 103.491,74.700 103.236 C 75.195 102.981,75.600 102.607,75.600 102.407 C 75.600 102.206,76.030 101.577,76.556 101.009 C 78.053 99.394,78.839 90.410,77.817 86.600 C 77.426 85.143,71.943 79.600,70.893 79.600 C 70.486 79.600,69.804 79.336,69.376 79.013 C 68.246 78.158,60.583 78.147,60.255 79.000 M41.400 93.200 C 41.264 93.420,40.823 93.600,40.419 93.600 C 40.016 93.600,39.582 93.870,39.455 94.200 C 39.329 94.530,38.931 94.800,38.572 94.800 C 38.213 94.800,37.098 95.610,36.094 96.600 C 35.090 97.590,34.054 98.400,33.792 98.400 C 33.194 98.400,29.200 102.588,29.200 103.215 C 29.200 103.470,28.300 104.487,27.200 105.476 C 26.100 106.465,25.200 107.527,25.200 107.837 C 25.200 108.147,24.795 108.805,24.300 109.300 C 23.353 110.247,22.355 111.863,21.584 113.700 C 21.330 114.305,20.959 114.800,20.761 114.800 C 20.562 114.800,20.400 114.980,20.400 115.199 C 20.400 115.418,19.829 116.807,19.131 118.284 C 18.433 119.762,17.724 121.608,17.557 122.386 C 16.900 125.442,16.442 126.927,16.084 127.159 C 13.416 128.883,13.578 160.528,16.276 164.589 C 16.564 165.023,16.803 165.833,16.806 166.389 C 16.812 167.453,17.659 170.192,18.126 170.659 C 18.277 170.810,18.400 171.331,18.400 171.818 C 18.400 172.304,18.670 172.926,19.000 173.200 C 19.330 173.474,19.600 173.974,19.600 174.311 C 19.600 174.649,20.050 175.514,20.600 176.236 C 21.150 176.957,21.600 177.818,21.600 178.150 C 21.600 178.481,21.780 178.864,22.000 179.000 C 22.220 179.136,22.400 179.521,22.400 179.856 C 22.400 180.525,24.824 184.420,26.224 186.000 C 26.711 186.550,27.230 187.396,27.376 187.880 C 27.521 188.363,27.983 188.867,28.400 189.000 C 28.817 189.133,29.258 189.553,29.379 189.934 C 30.231 192.619,33.722 192.086,34.108 189.211 C 34.223 188.352,34.606 187.070,34.959 186.363 C 35.311 185.656,35.600 184.848,35.600 184.567 C 35.600 184.287,35.833 183.819,36.117 183.529 C 36.401 183.238,37.076 182.066,37.617 180.923 C 38.158 179.781,39.005 178.660,39.500 178.432 C 39.995 178.204,40.400 177.774,40.400 177.476 C 40.400 177.179,40.850 176.694,41.400 176.400 C 41.950 176.106,42.400 175.734,42.400 175.574 C 42.400 175.415,42.847 174.860,43.393 174.342 C 44.397 173.389,44.697 172.231,44.044 171.827 C 43.848 171.706,43.198 170.660,42.599 169.503 C 42.000 168.347,41.261 167.116,40.955 166.769 C 40.650 166.421,40.400 165.827,40.400 165.449 C 40.400 165.071,40.019 164.005,39.553 163.081 C 39.088 162.156,38.549 160.590,38.356 159.600 C 38.163 158.610,37.831 156.990,37.618 156.000 C 36.273 149.742,37.036 133.909,38.831 130.800 C 39.022 130.470,39.468 129.570,39.823 128.800 C 42.160 123.724,45.574 118.465,47.036 117.687 C 47.566 117.405,48.000 116.939,48.000 116.651 C 48.000 116.364,48.450 115.923,49.000 115.673 C 49.550 115.422,50.000 114.943,50.000 114.609 C 50.000 114.274,50.265 114.000,50.589 114.000 C 51.404 114.000,54.501 112.219,54.964 111.484 C 55.516 110.610,54.375 109.069,52.530 108.196 C 49.254 106.647,44.400 100.333,44.400 97.621 C 44.400 97.206,44.202 96.801,43.961 96.720 C 43.719 96.640,43.426 95.725,43.309 94.687 C 43.100 92.836,42.105 92.060,41.400 93.200 M252.887 123.300 C 252.949 138.975,253.144 152.070,253.320 152.400 C 253.496 152.730,254.250 153.450,254.997 154.000 C 256.607 155.187,261.884 159.579,270.400 166.819 C 273.810 169.718,280.200 175.112,284.600 178.805 C 289.000 182.498,293.770 186.530,295.200 187.765 C 298.793 190.868,301.059 191.544,304.629 190.577 C 306.043 190.194,307.200 189.728,307.200 189.541 C 307.200 189.353,307.412 189.200,307.672 189.200 C 308.931 189.200,312.772 186.967,312.987 186.110 C 313.219 185.187,311.880 182.000,311.260 182.000 C 311.082 182.000,310.501 181.055,309.968 179.900 C 309.436 178.745,308.860 177.738,308.689 177.663 C 308.518 177.588,308.020 176.823,307.581 175.963 C 307.143 175.103,306.638 174.400,306.460 174.400 C 306.282 174.400,305.701 173.463,305.168 172.318 C 304.636 171.173,303.795 169.797,303.300 169.260 C 302.805 168.723,302.400 168.130,302.400 167.943 C 302.400 167.756,301.500 166.342,300.400 164.800 C 299.300 163.258,298.400 161.829,298.400 161.624 C 298.400 161.419,297.601 160.084,296.625 158.658 C 292.726 152.963,293.103 156.498,292.895 123.700 L 292.712 94.800 272.743 94.800 L 252.775 94.800 252.887 123.300 M328.090 96.070 C 327.831 96.329,326.220 96.684,324.510 96.860 C 319.566 97.366,317.827 97.656,317.420 98.041 C 317.211 98.238,316.764 98.400,316.426 98.400 C 316.088 98.400,314.909 98.835,313.806 99.367 C 312.703 99.899,311.215 100.573,310.500 100.865 C 309.785 101.157,309.200 101.529,309.200 101.692 C 309.200 101.856,308.607 102.237,307.881 102.540 C 306.316 103.194,304.400 105.342,304.400 106.443 C 304.400 107.561,305.543 107.847,306.900 107.069 C 308.343 106.240,309.351 106.218,310.000 107.000 C 310.274 107.330,310.643 107.600,310.821 107.600 C 311.546 107.600,313.930 109.497,315.028 110.948 C 315.673 111.799,316.781 113.239,317.492 114.148 C 318.203 115.056,319.084 116.340,319.452 117.000 C 319.819 117.660,320.452 118.435,320.860 118.723 C 321.267 119.010,321.600 119.508,321.600 119.828 C 321.600 120.149,321.756 120.723,321.948 121.105 C 322.139 121.487,322.769 122.744,323.348 123.897 C 323.926 125.050,324.400 126.177,324.400 126.401 C 324.400 126.770,325.078 128.433,326.600 131.800 C 326.898 132.460,327.374 133.720,327.658 134.600 C 327.941 135.480,328.404 136.555,328.687 136.989 C 328.969 137.423,329.200 138.130,329.200 138.561 C 329.200 139.652,330.035 142.242,331.359 145.260 C 331.712 146.064,332.000 146.857,332.000 147.023 C 332.000 147.189,332.450 147.914,333.000 148.636 C 333.550 149.357,334.000 150.409,334.000 150.973 C 334.000 151.538,334.138 152.000,334.306 152.000 C 334.474 152.000,334.925 152.675,335.307 153.500 C 336.001 154.993,336.819 156.419,337.201 156.800 C 337.311 156.910,337.667 157.540,337.991 158.200 C 338.632 159.506,339.873 161.172,341.900 163.451 C 342.615 164.254,343.200 165.067,343.200 165.256 C 343.200 165.445,343.464 165.600,343.786 165.600 C 344.108 165.600,344.576 165.981,344.825 166.446 C 345.705 168.091,350.505 171.885,353.431 173.249 C 354.514 173.754,355.601 174.363,355.847 174.602 C 356.093 174.841,357.083 175.272,358.047 175.560 C 359.011 175.848,360.213 176.245,360.719 176.442 C 361.224 176.639,361.974 176.800,362.385 176.800 C 362.797 176.800,363.202 177.007,363.286 177.259 C 363.389 177.566,365.456 177.783,369.520 177.914 L 375.600 178.109 375.600 179.574 C 375.600 180.380,375.805 181.245,376.056 181.496 C 376.307 181.747,376.661 182.818,376.843 183.876 C 377.025 184.934,377.450 187.060,377.787 188.600 C 378.124 190.140,378.400 191.859,378.400 192.420 C 378.400 192.981,378.592 193.632,378.827 193.867 C 379.263 194.303,379.791 197.099,380.250 201.400 C 380.391 202.720,380.692 204.035,380.920 204.321 C 383.517 207.596,383.506 257.654,380.907 260.887 C 380.523 261.365,380.321 262.269,379.742 266.104 L 379.515 267.609 362.658 267.504 L 345.800 267.400 345.937 266.200 C 346.012 265.540,346.303 264.730,346.583 264.400 C 348.278 262.401,348.250 246.169,346.548 244.757 C 346.247 244.507,346.000 243.932,346.000 243.479 C 346.000 242.230,344.417 237.600,343.990 237.600 C 343.872 237.600,343.156 236.430,342.400 235.000 C 341.644 233.570,340.885 232.400,340.713 232.400 C 340.541 232.400,340.400 232.199,340.400 231.954 C 340.400 231.708,339.808 230.673,339.084 229.654 C 338.360 228.634,337.505 227.260,337.184 226.600 C 336.863 225.940,336.420 225.181,336.200 224.914 C 335.980 224.647,335.575 224.159,335.300 223.831 C 335.025 223.502,334.800 223.101,334.800 222.938 C 334.800 222.541,332.817 219.640,331.700 218.404 C 331.205 217.856,330.800 217.091,330.800 216.704 C 330.800 216.317,330.620 216.000,330.400 216.000 C 330.180 216.000,330.000 215.816,330.000 215.591 C 330.000 215.129,328.184 212.261,327.049 210.929 C 326.276 210.023,325.607 208.946,324.729 207.200 C 324.453 206.650,323.816 205.643,323.314 204.962 C 322.811 204.281,322.400 203.531,322.400 203.296 C 322.400 203.060,322.265 202.807,322.100 202.733 C 321.703 202.557,320.002 200.120,319.994 199.716 C 319.969 198.445,319.245 198.307,317.366 199.216 C 316.311 199.727,313.907 200.723,312.024 201.431 C 308.203 202.865,307.920 203.276,308.989 205.835 C 314.266 218.465,309.150 241.695,296.685 261.700 L 293.008 267.600 288.457 267.600 L 283.905 267.600 284.886 266.300 C 288.035 262.125,290.212 258.852,292.747 254.481 C 294.316 251.775,295.600 249.481,295.600 249.383 C 295.600 249.285,296.404 247.416,297.386 245.230 C 304.710 228.936,305.558 210.377,299.357 202.127 C 298.831 201.426,298.400 200.700,298.400 200.512 C 298.400 199.863,294.451 196.331,282.800 186.563 C 279.390 183.704,274.372 179.483,271.648 177.182 C 268.925 174.882,265.585 172.100,264.227 171.000 C 262.869 169.900,258.798 166.478,255.179 163.396 C 237.025 147.931,231.220 143.200,230.396 143.200 C 229.545 143.200,227.153 145.735,220.205 154.000 C 216.968 157.850,212.673 162.943,210.660 165.318 C 208.647 167.692,206.822 170.100,206.605 170.668 C 206.124 171.927,203.276 169.351,230.038 191.862 C 235.229 196.228,242.097 202.008,245.302 204.706 C 254.484 212.438,255.399 213.813,255.351 219.800 C 255.281 228.658,245.389 244.096,236.787 248.771 C 226.084 254.588,221.555 254.662,215.169 249.123 C 213.536 247.707,208.870 243.761,204.800 240.355 C 200.730 236.949,191.785 229.445,184.921 223.681 C 176.458 216.572,172.144 213.200,171.515 213.200 C 170.827 213.200,169.658 214.304,166.994 217.467 C 161.505 223.982,162.000 221.849,162.000 239.012 L 162.000 253.837 164.879 256.418 C 166.463 257.838,170.075 260.935,172.906 263.300 L 178.054 267.600 92.024 267.600 L 5.993 267.600 6.186 269.700 C 6.292 270.855,6.488 275.220,6.622 279.400 C 6.756 283.580,7.009 288.260,7.185 289.800 C 8.040 297.297,10.030 308.704,10.834 310.719 C 11.035 311.224,11.200 312.071,11.200 312.601 C 11.200 313.131,11.658 315.237,12.218 317.282 C 12.778 319.327,13.429 321.720,13.663 322.600 C 14.581 326.045,16.920 333.045,18.207 336.200 C 18.476 336.860,19.304 339.105,20.048 341.189 C 22.302 347.506,30.850 364.472,35.369 371.600 C 42.212 382.392,47.259 389.223,54.483 397.473 C 65.327 409.857,80.101 423.157,89.957 429.408 C 90.311 429.632,92.760 431.239,95.400 432.980 C 103.277 438.174,107.229 440.488,113.200 443.404 C 115.290 444.424,117.270 445.425,117.600 445.627 C 118.765 446.341,130.023 451.174,132.097 451.851 C 133.254 452.229,134.945 452.858,135.856 453.250 C 136.767 453.642,138.027 454.075,138.656 454.212 C 139.285 454.350,140.160 454.613,140.600 454.797 C 141.040 454.981,142.390 455.442,143.600 455.821 C 144.810 456.199,146.160 456.646,146.600 456.812 C 147.778 457.259,157.140 459.703,159.000 460.050 C 159.880 460.214,161.950 460.644,163.600 461.005 C 166.601 461.662,168.906 462.042,174.248 462.758 C 175.814 462.968,178.154 463.339,179.448 463.582 C 186.452 464.898,219.555 464.893,226.200 463.575 C 227.300 463.356,230.090 462.927,232.400 462.620 C 259.008 459.087,291.283 446.247,314.634 429.904 C 315.495 429.302,316.650 428.496,317.200 428.113 C 329.962 419.242,348.241 401.426,358.767 387.600 C 360.526 385.290,362.397 382.860,362.926 382.200 C 363.455 381.540,364.228 380.391,364.644 379.648 C 365.556 378.016,365.431 378.212,369.535 372.000 C 375.226 363.388,388.000 336.593,388.000 333.269 C 388.000 332.879,388.159 332.389,388.353 332.180 C 388.690 331.817,390.337 326.788,391.229 323.400 C 391.460 322.520,391.919 320.990,392.248 320.000 C 392.752 318.483,394.176 312.283,395.622 305.308 C 398.381 292.002,400.876 250.012,399.179 245.453 C 398.922 244.764,398.545 241.320,398.340 237.800 C 397.995 231.872,397.687 228.344,396.979 222.200 C 396.827 220.880,396.502 219.551,396.257 219.246 C 396.013 218.941,395.687 217.411,395.533 215.846 C 395.379 214.281,395.062 211.920,394.827 210.600 C 394.593 209.280,394.287 207.480,394.147 206.600 C 394.007 205.720,393.752 204.820,393.582 204.600 C 393.411 204.380,393.148 203.480,392.998 202.600 C 392.652 200.577,392.025 198.432,391.478 197.400 C 391.244 196.960,390.926 195.880,390.769 195.000 C 390.612 194.120,390.195 192.356,389.842 191.080 C 389.489 189.805,389.200 188.410,389.200 187.980 C 389.200 187.551,389.057 187.200,388.882 187.200 C 388.708 187.200,388.247 186.167,387.858 184.904 C 387.469 183.642,386.915 182.337,386.628 182.004 C 386.340 181.672,385.983 180.860,385.834 180.200 C 385.686 179.540,385.417 178.330,385.238 177.510 C 385.058 176.691,384.645 175.619,384.319 175.129 C 383.753 174.276,385.427 172.400,386.754 172.400 C 386.928 172.400,387.277 171.950,387.527 171.400 C 387.778 170.850,388.257 170.400,388.591 170.400 C 388.926 170.400,389.200 170.234,389.200 170.031 C 389.200 169.828,389.705 169.153,390.323 168.531 C 390.941 167.909,391.796 166.782,392.223 166.026 C 392.650 165.271,393.310 164.330,393.690 163.936 C 394.069 163.543,394.485 162.721,394.614 162.110 C 394.743 161.500,395.017 160.687,395.224 160.305 C 395.431 159.923,395.600 159.193,395.600 158.682 C 395.600 158.171,395.864 157.404,396.187 156.976 C 397.045 155.843,397.057 143.784,396.202 142.146 C 395.874 141.516,395.604 140.451,395.602 139.780 C 395.601 139.109,395.451 138.389,395.270 138.180 C 395.088 137.971,394.692 136.990,394.390 136.000 C 394.088 135.010,393.426 133.529,392.920 132.708 C 392.414 131.887,392.000 130.957,392.000 130.641 C 392.000 130.325,391.798 129.999,391.551 129.917 C 391.304 129.835,390.719 129.125,390.251 128.340 C 387.822 124.264,378.947 114.721,375.617 112.604 C 374.838 112.109,373.857 111.320,373.438 110.852 C 373.019 110.383,372.441 110.000,372.154 110.000 C 371.866 110.000,371.283 109.627,370.858 109.170 C 370.433 108.714,369.544 108.039,368.883 107.670 C 368.222 107.302,366.898 106.469,365.941 105.821 C 364.058 104.546,360.046 102.400,359.545 102.400 C 359.375 102.400,358.572 101.950,357.762 101.400 C 356.951 100.850,355.874 100.400,355.368 100.400 C 354.861 100.400,354.336 100.220,354.200 100.000 C 354.064 99.780,353.436 99.600,352.805 99.600 C 352.174 99.600,351.416 99.359,351.122 99.064 C 350.827 98.770,350.049 98.400,349.393 98.243 C 345.552 97.322,344.276 97.107,341.233 96.866 C 339.099 96.698,337.805 96.417,337.700 96.100 C 337.474 95.422,328.765 95.395,328.090 96.070 M349.000 115.947 C 352.606 117.118,357.077 119.387,358.626 120.830 C 359.080 121.254,359.635 121.600,359.860 121.600 C 360.969 121.600,368.252 130.198,370.025 133.600 C 372.771 138.870,374.922 151.034,373.684 154.287 C 373.451 154.899,373.144 156.098,373.002 156.952 C 372.672 158.939,372.538 158.788,369.458 152.973 C 361.316 137.596,360.565 136.588,347.026 122.852 L 338.600 114.303 342.000 114.540 C 344.094 114.686,346.783 115.226,349.000 115.947 M196.869 115.837 C 196.134 116.351,191.510 121.635,186.400 127.799 C 185.630 128.727,183.281 131.538,181.179 134.044 C 172.044 144.939,172.399 143.609,177.500 147.841 C 179.645 149.621,184.460 153.648,188.200 156.791 C 199.039 165.900,198.239 165.315,199.164 164.819 C 199.612 164.580,202.900 160.922,206.471 156.692 C 210.041 152.461,215.010 146.593,217.513 143.650 C 222.865 137.357,223.265 136.669,222.172 135.640 C 221.012 134.549,198.667 115.800,198.165 115.496 C 197.926 115.352,197.343 115.505,196.869 115.837 M162.600 145.773 C 161.060 146.263,159.530 146.764,159.200 146.886 C 158.870 147.008,156.620 147.690,154.200 148.402 C 151.780 149.113,149.080 149.925,148.200 150.204 C 147.320 150.484,145.520 151.018,144.200 151.392 C 142.880 151.765,140.810 152.393,139.600 152.788 C 138.390 153.183,136.410 153.800,135.200 154.160 C 133.990 154.520,131.560 155.262,129.800 155.808 C 125.599 157.111,108.990 162.129,103.400 163.784 C 100.980 164.500,98.100 165.379,97.000 165.738 C 93.953 166.732,86.657 168.964,82.299 170.235 C 77.843 171.535,77.661 171.761,78.579 174.854 C 78.921 176.004,79.200 177.080,79.200 177.245 C 79.200 177.410,77.821 177.852,76.136 178.227 L 73.073 178.909 73.374 191.954 C 73.540 199.129,73.794 205.990,73.938 207.200 L 74.200 209.400 80.622 209.652 C 84.154 209.790,87.844 210.026,88.822 210.175 C 92.930 210.802,97.099 211.684,98.508 212.223 C 99.338 212.540,100.548 212.800,101.199 212.800 L 102.381 212.800 102.196 208.500 C 102.095 206.135,101.921 200.011,101.810 194.891 L 101.609 185.583 102.904 185.017 C 103.617 184.706,105.910 183.962,108.000 183.365 C 110.090 182.768,113.780 181.669,116.200 180.923 C 122.097 179.106,123.702 178.620,127.000 177.654 C 128.540 177.203,131.870 176.211,134.400 175.450 C 142.616 172.978,148.554 171.203,150.800 170.548 C 153.293 169.820,153.699 169.698,158.400 168.260 C 160.270 167.688,163.960 166.565,166.600 165.764 C 172.717 163.909,173.238 163.388,172.042 160.319 C 171.845 159.813,171.488 158.680,171.248 157.800 C 167.455 143.844,167.679 144.156,162.600 145.773 M49.260 178.113 C 47.622 178.506,44.400 180.879,44.400 181.692 C 44.400 181.891,43.950 182.643,43.400 183.364 C 42.850 184.086,42.400 184.967,42.400 185.324 C 42.400 186.184,41.140 188.800,40.726 188.800 C 40.547 188.800,40.400 189.153,40.400 189.584 C 40.400 190.734,39.089 194.800,38.718 194.800 C 38.543 194.800,38.400 195.152,38.400 195.581 C 38.400 196.011,38.239 196.776,38.042 197.281 C 37.845 197.787,37.467 199.010,37.203 200.000 C 36.939 200.990,36.559 202.070,36.359 202.400 C 35.891 203.171,35.796 203.433,35.195 205.600 C 34.341 208.680,33.506 210.800,33.146 210.800 C 32.956 210.800,32.797 211.115,32.794 211.500 C 32.788 212.291,31.696 215.582,31.236 216.197 C 30.972 216.549,30.449 218.727,29.841 222.000 C 29.430 224.213,28.840 226.120,28.441 226.519 C 27.869 227.091,21.207 227.550,13.100 227.578 L 6.400 227.600 6.400 241.157 L 6.400 254.714 13.344 255.003 L 20.288 255.293 20.528 258.697 C 20.660 260.570,20.820 262.124,20.884 262.151 C 20.948 262.179,24.645 262.142,29.100 262.070 L 37.200 261.940 37.200 260.426 C 37.200 259.593,37.314 258.077,37.454 257.056 L 37.709 255.200 83.631 255.200 C 115.674 255.200,129.632 255.329,129.816 255.626 C 129.961 255.860,130.179 257.507,130.301 259.285 L 130.522 262.519 138.117 262.289 C 146.944 262.023,146.669 262.150,147.040 258.155 L 147.304 255.314 151.693 255.083 C 154.107 254.955,156.199 254.735,156.341 254.593 C 156.483 254.450,156.600 248.364,156.600 241.067 L 156.600 227.800 148.600 227.554 C 144.200 227.419,123.635 227.284,102.900 227.254 L 65.200 227.200 65.196 205.300 C 65.191 180.602,65.202 180.773,63.552 180.043 C 62.909 179.758,62.161 179.313,61.891 179.053 C 60.586 177.799,52.942 177.230,49.260 178.113 M130.321 194.700 C 121.734 204.838,115.151 212.681,114.641 213.383 C 113.870 214.442,114.898 215.888,118.563 218.900 L 122.335 222.000 137.080 222.000 L 151.825 222.000 157.569 215.125 C 160.729 211.344,163.390 207.959,163.483 207.603 C 163.668 206.898,139.244 186.000,138.235 186.000 C 137.935 186.000,134.374 189.915,130.321 194.700 M225.401 199.857 C 225.070 200.187,224.800 200.600,224.800 200.774 C 224.800 200.948,224.260 201.769,223.600 202.600 C 222.940 203.431,222.400 204.445,222.400 204.855 C 222.400 205.265,222.220 205.600,222.000 205.600 C 221.780 205.600,221.600 205.771,221.600 205.979 C 221.600 206.188,221.150 206.844,220.600 207.438 C 220.050 208.031,219.600 208.690,219.600 208.901 C 219.600 209.231,219.036 210.024,217.194 212.283 C 216.977 212.549,216.800 212.966,216.800 213.210 C 216.800 213.454,216.350 214.243,215.800 214.964 C 215.250 215.686,214.800 216.484,214.800 216.738 C 214.800 216.992,214.620 217.200,214.400 217.200 C 214.180 217.200,214.000 217.528,214.000 217.928 C 214.000 218.328,213.550 219.047,213.000 219.525 C 212.450 220.003,212.000 220.656,212.000 220.975 C 212.000 221.294,211.672 221.790,211.272 222.077 C 210.494 222.636,209.200 224.985,209.200 225.839 C 209.200 226.122,208.872 226.590,208.472 226.877 C 206.930 227.984,205.656 232.465,206.769 232.867 C 207.219 233.029,215.776 240.273,218.610 242.891 C 222.492 246.476,224.884 246.806,229.771 244.431 C 238.434 240.220,246.031 230.556,248.039 221.190 C 248.738 217.933,248.152 216.587,244.698 213.525 C 242.242 211.347,231.222 202.110,229.139 200.483 C 227.889 199.507,226.057 199.200,225.401 199.857 M126.166 281.368 C 133.373 284.555,134.917 295.108,128.944 300.365 L 127.200 301.901 127.200 305.921 C 127.200 308.133,127.374 311.260,127.587 312.871 C 127.800 314.482,128.256 319.850,128.600 324.800 C 128.944 329.750,129.394 335.075,129.600 336.632 C 129.805 338.190,130.167 342.600,130.403 346.432 C 131.143 358.433,131.683 358.745,135.843 349.576 C 136.086 349.039,137.439 346.530,138.848 344.000 C 141.514 339.215,145.859 330.490,147.812 326.000 C 148.434 324.570,149.152 323.130,149.407 322.800 C 151.041 320.692,155.647 309.805,155.961 307.309 C 156.505 302.997,157.986 300.455,160.806 298.997 C 167.575 295.496,176.030 304.214,171.736 310.268 C 169.993 312.726,169.950 312.900,170.189 316.600 C 170.551 322.205,171.978 335.834,172.597 339.600 C 172.904 341.470,173.356 345.340,173.602 348.200 C 174.188 355.038,174.227 355.201,175.308 355.196 C 176.081 355.193,176.477 354.485,178.271 349.896 C 182.134 340.016,188.825 323.406,189.443 322.163 C 189.967 321.110,189.985 320.574,189.565 318.544 C 188.030 311.108,196.398 307.102,201.732 312.719 C 204.242 315.362,203.580 318.619,199.652 322.942 C 197.147 325.700,196.572 326.727,191.411 337.654 C 188.360 344.114,184.454 352.273,182.732 355.784 C 179.290 362.800,179.114 363.653,180.638 365.882 C 182.325 368.350,181.556 372.411,178.936 374.863 C 171.056 382.237,160.492 371.035,167.644 362.889 C 169.048 361.290,169.056 360.572,167.777 351.808 C 167.456 349.613,166.742 343.244,166.189 337.654 C 165.637 332.065,164.919 325.963,164.593 324.094 C 164.267 322.224,164.000 320.099,164.000 319.371 C 164.000 315.399,162.627 317.249,156.112 330.000 C 153.470 335.170,148.596 344.710,145.280 351.200 L 139.251 363.000 139.845 365.200 C 142.620 375.480,128.665 382.447,121.122 374.548 C 117.305 370.551,117.018 363.362,120.558 360.433 C 122.231 359.049,122.891 356.155,122.338 352.628 C 121.683 348.443,120.779 341.538,120.424 338.000 C 120.236 336.130,119.973 334.150,119.839 333.600 C 119.705 333.050,119.047 327.920,118.377 322.200 C 115.952 301.505,115.938 301.432,114.032 299.279 C 105.590 289.739,114.697 276.296,126.166 281.368 M221.463 312.616 C 222.416 313.174,223.496 314.209,223.863 314.916 C 225.728 318.504,225.633 373.474,223.757 376.701 C 221.544 380.506,214.990 379.871,213.076 375.666 C 211.748 372.749,211.731 318.458,213.058 315.563 C 214.756 311.856,218.141 310.669,221.463 312.616 M273.000 312.594 C 282.431 314.567,289.912 324.007,286.966 330.216 C 284.805 334.769,280.305 333.878,276.532 328.149 C 271.305 320.213,265.237 318.030,257.438 321.281 C 253.557 322.898,252.000 325.028,252.000 328.721 C 252.000 333.594,254.328 335.198,265.800 338.227 C 285.725 343.487,290.200 347.298,290.200 359.000 C 290.200 375.041,272.871 383.593,252.639 377.536 C 240.446 373.886,233.203 355.587,243.894 355.442 C 247.056 355.399,247.822 356.086,250.468 361.346 C 254.095 368.555,256.926 370.400,264.359 370.400 C 280.150 370.400,283.594 354.974,268.829 350.378 C 267.454 349.950,265.863 349.600,265.293 349.600 C 264.248 349.600,263.491 349.415,259.746 348.243 C 258.617 347.889,257.322 347.600,256.870 347.600 C 256.417 347.600,255.936 347.420,255.800 347.200 C 255.664 346.980,255.197 346.800,254.763 346.800 C 254.329 346.800,253.085 346.350,252.000 345.800 C 250.915 345.250,249.751 344.800,249.413 344.800 C 249.076 344.800,248.800 344.661,248.800 344.491 C 248.800 344.321,248.166 343.841,247.392 343.423 C 241.692 340.354,238.758 332.682,240.570 325.588 C 243.292 314.935,257.319 309.314,273.000 312.594 M88.600 312.799 C 100.803 316.453,109.868 329.100,104.402 334.846 C 101.410 337.992,97.721 336.811,95.110 331.871 C 93.210 328.278,87.945 323.034,85.600 322.399 C 84.610 322.131,83.406 321.727,82.925 321.502 C 79.724 320.001,71.725 322.342,67.980 325.874 C 62.203 331.324,61.043 334.585,61.035 345.400 C 61.022 361.954,66.103 369.090,78.200 369.507 C 86.580 369.796,91.158 366.894,94.860 358.947 C 97.604 353.057,99.330 351.670,102.531 352.786 C 112.813 356.370,102.041 374.912,87.751 378.226 C 62.959 383.975,46.056 367.959,48.299 340.844 C 49.481 326.555,57.683 316.310,70.921 312.588 C 73.430 311.883,86.043 312.033,88.600 312.799 M349.582 313.238 C 353.614 315.504,353.258 320.628,349.000 321.611 C 348.120 321.815,341.441 321.985,334.159 321.990 C 326.876 321.996,319.811 322.116,318.459 322.257 L 316.000 322.514 316.000 330.802 L 316.000 339.089 330.900 339.288 C 348.686 339.526,350.005 339.857,349.999 344.080 C 349.992 348.230,348.651 348.559,331.100 348.716 L 316.000 348.852 316.000 358.377 C 316.000 365.515,316.125 368.003,316.500 368.306 C 316.809 368.556,323.262 368.785,333.400 368.906 C 344.337 369.037,350.207 369.255,351.021 369.562 C 353.694 370.571,354.443 374.245,352.433 376.494 L 351.265 377.800 329.333 377.798 C 304.458 377.796,304.876 377.843,303.988 374.932 C 303.358 372.869,302.982 331.219,303.516 322.767 C 304.182 312.236,302.300 313.056,326.400 312.791 C 336.850 312.675,346.005 312.540,346.746 312.491 C 347.521 312.438,348.723 312.755,349.582 313.238 " stroke="none" fill="#ffffff" fill-rule="evenodd"></path><path id="path1" d="" stroke="none" fill="#08a4ec" fill-rule="evenodd"></path></g></svg>